<?xml version="1.0" standalone="no"?>
<!DOCTYPE svg PUBLIC "-//W3C//DTD SVG 20010904//EN"
 "http://www.w3.org/TR/2001/REC-SVG-20010904/DTD/svg10.dtd">
<svg version="1.0" xmlns="http://www.w3.org/2000/svg"
 width="200.000000pt" height="200.000000pt" viewBox="0 0 200.000000 200.000000"
 preserveAspectRatio="xMidYMid meet">
<metadata>
Created by potrace 1.10, written by Peter Selinger 2001-2011
</metadata>
<g transform="translate(0.000000,200.000000) scale(0.100000,-0.100000)"
fill="#a6a6a6" stroke="none">
<path d="M178 1991 c-81 -16 -153 -90 -168 -172 -4 -22 -6 -39 -4 -39 1 0 13
24 27 53 32 71 63 102 131 132 31 14 56 27 56 30 0 3 -1 4 -2 4 -2 -1 -20 -5
-40 -8z"/>
<path d="M1780 1993 c0 -2 21 -13 46 -23 77 -33 105 -59 136 -127 17 -34 31
-63 33 -63 1 0 -1 17 -5 39 -15 83 -87 156 -170 171 -22 4 -40 6 -40 3z"/>
<path d="M885 1774 c-80 -12 -197 -73 -252 -133 -156 -166 -193 -469 -88 -707
28 -62 102 -145 160 -180 136 -79 315 -85 442 -13 28 16 54 26 56 22 5 -9 1
-80 -8 -129 -6 -36 -50 -86 -96 -109 -39 -21 -122 -30 -183 -21 -54 8 -121 66
-131 112 -17 77 -11 74 -154 74 -143 0 -151 -3 -146 -60 20 -237 237 -410 515
-410 111 0 252 46 337 111 80 59 85 66 129 156 49 100 52 141 52 678 1 275 -2
518 -6 540 l-7 40 -125 3 c-156 3 -168 1 -172 -38 l-3 -30 -40 27 c-76 51
-193 79 -280 67z m219 -54 c27 -14 66 -45 87 -69 l39 -44 0 62 0 61 133 0 132
0 -2 -247 c-2 -137 -4 -397 -5 -579 l-3 -330 -38 -76 c-80 -164 -234 -248
-452 -248 -161 0 -277 40 -368 129 -56 53 -104 140 -112 203 -4 24 -8 53 -11
66 -4 22 -4 22 126 22 l130 0 0 -30 c0 -92 91 -160 213 -160 106 0 186 40 227
112 20 36 24 60 28 153 l4 110 -26 -37 c-34 -48 -127 -94 -209 -103 -137 -14
-274 32 -359 122 -88 95 -118 182 -125 358 -6 147 7 216 58 318 51 101 126
171 228 214 48 20 70 23 156 21 83 -3 108 -7 149 -28z"/>
<path d="M920 1504 c-77 -33 -115 -94 -131 -210 -29 -208 66 -367 219 -367
144 0 222 101 222 287 0 152 -38 242 -120 284 -53 26 -137 29 -190 6z m180
-26 c36 -19 51 -34 74 -82 26 -51 30 -72 34 -166 4 -99 2 -112 -21 -162 -35
-78 -82 -111 -162 -116 -62 -4 -125 15 -125 39 0 6 -4 7 -10 4 -13 -8 -57 65
-71 119 -18 73 -7 232 19 283 50 96 163 131 262 81z"/>
<path d="M10 180 c15 -83 88 -155 171 -170 21 -4 36 -3 33 1 -3 5 -11 9 -17 9
-22 0 -91 41 -116 69 -13 14 -34 50 -47 79 -13 28 -25 52 -28 52 -2 0 0 -18 4
-40z"/>
<path d="M1964 162 c-25 -59 -66 -99 -133 -133 -33 -17 -34 -18 -10 -19 36 0
112 51 139 95 20 33 44 115 33 115 -2 0 -15 -26 -29 -58z"/>
</g>
</svg>
