<?xml version="1.0" standalone="no"?>
<!DOCTYPE svg PUBLIC "-//W3C//DTD SVG 20010904//EN"
 "http://www.w3.org/TR/2001/REC-SVG-20010904/DTD/svg10.dtd">
<svg version="1.0" xmlns="http://www.w3.org/2000/svg"
 width="66.000000pt" height="66.000000pt" viewBox="0 0 66.000000 66.000000"
 preserveAspectRatio="xMidYMid meet">
<metadata>
Created by potrace 1.10, written by Peter Selinger 2001-2011
</metadata>
<g transform="translate(0.000000,66.000000) scale(0.100000,-0.100000)"
fill="#2e346b" stroke="none">
<path d="M20 635 c-6 -8 -10 -21 -8 -30 2 -13 9 -10 32 14 27 29 28 31 9 31
-11 0 -26 -7 -33 -15z"/>
<path d="M607 625 c23 -31 43 -39 43 -17 0 23 -19 42 -42 42 -18 0 -18 -1 -1
-25z"/>
<path d="M257 596 c-51 -19 -71 -39 -97 -94 -26 -55 -25 -156 3 -211 17 -33
17 -35 -3 -56 -25 -27 -25 -48 1 -95 60 -107 243 -116 323 -17 l31 39 3 200
c4 238 3 241 -87 236 -31 -1 -74 1 -96 5 -25 4 -54 2 -78 -7z m124 -43 c30
-25 31 -26 25 -5 -7 21 -4 22 41 22 l48 0 -3 -192 c-3 -210 -8 -229 -64 -271
-40 -30 -124 -34 -181 -9 -44 19 -65 45 -81 100 -7 21 -4 22 38 22 29 0 46 -4
46 -12 0 -25 34 -48 70 -48 51 0 78 25 86 80 l7 45 -27 -24 c-21 -19 -37 -25
-76 -25 -90 0 -140 61 -140 169 0 72 22 120 70 153 46 31 100 29 141 -5z"/>
<path d="M294 492 c-40 -26 -46 -117 -11 -158 50 -58 122 -20 122 64 0 65 -25
102 -68 102 -17 0 -37 -4 -43 -8z m60 -37 c23 -24 28 -52 14 -82 -25 -52 -66
-38 -75 24 -4 29 -1 44 12 56 20 21 29 21 49 2z"/>
<path d="M10 53 c0 -25 23 -46 45 -41 13 2 10 9 -14 32 -29 27 -31 28 -31 9z"/>
<path d="M616 41 c-27 -29 -28 -31 -9 -31 25 0 46 23 41 45 -2 13 -9 10 -32
-14z"/>
</g>
</svg>
