<?xml version="1.0" standalone="no"?>
<!DOCTYPE svg PUBLIC "-//W3C//DTD SVG 20010904//EN"
 "http://www.w3.org/TR/2001/REC-SVG-20010904/DTD/svg10.dtd">
<svg version="1.0" xmlns="http://www.w3.org/2000/svg"
 width="512.000000pt" height="512.000000pt" viewBox="0 0 512.000000 512.000000"
 preserveAspectRatio="xMidYMid meet">

<g transform="translate(0.000000,512.000000) scale(0.100000,-0.100000)"
fill="#000000" stroke="none">
<path d="M475 5109 c-36 -5 -94 -25 -145 -50 -170 -84 -298 -256 -321 -434 -6
-53 -9 -761 -7 -2125 l3 -2045 24 -60 c36 -90 95 -177 162 -239 75 -70 201
-133 289 -146 90 -13 4062 -13 4155 0 227 32 447 252 475 476 13 97 12 4060 0
4149 -27 192 -181 374 -385 456 l-60 24 -2065 1 c-1136 1 -2092 -2 -2125 -7z
m2045 -619 c214 -23 356 -86 491 -220 47 -47 96 -98 107 -115 l21 -30 1 153 0
152 345 0 345 0 0 -1353 c0 -886 -4 -1382 -11 -1437 -71 -579 -502 -957 -1149
-1009 -345 -28 -678 49 -928 216 -254 169 -407 421 -441 726 -6 53 -11 105
-11 117 0 20 5 20 324 20 l323 0 6 -68 c11 -133 78 -247 187 -321 75 -49 161
-77 286 -93 253 -31 528 81 644 262 62 97 71 148 77 420 l5 245 -28 -35 c-109
-140 -231 -219 -410 -267 -87 -23 -119 -26 -264 -27 -178 0 -266 11 -395 51
-333 105 -580 373 -684 747 -49 173 -65 305 -66 526 0 226 15 325 76 512 152
469 500 778 929 827 105 12 113 12 220 1z"/>
<path d="M2450 3879 c-215 -36 -362 -207 -416 -485 -25 -124 -25 -420 -1 -519
78 -320 283 -505 557 -505 254 1 460 171 536 445 25 91 31 421 10 542 -51 292
-188 466 -407 518 -70 16 -193 18 -279 4z"/>
</g>
</svg>
